<svg xmlns="http://www.w3.org/2000/svg" viewBox="0 0 1600 520"><rect width="1600" height="520" rx="8" fill="#102d45"/><rect y="96" width="1600" height="300" fill="#173b59"/><path d="M0 96h1600" stroke="#41627a" stroke-width="2"/><text x="44" y="56" fill="#ffd43b" font-family="Arial" font-size="18" font-weight="700" letter-spacing="4">STUDY LENS</text><text x="1548" y="58" text-anchor="end" fill="white" font-family="Arial" font-size="30" font-weight="700">A relational model</text><g font-family="Arial"><g transform="translate(52 140)"><rect width="430" height="210" rx="12" fill="#f5f7fa" stroke="#6cb7e9" stroke-width="6"/><rect x="28" y="38" width="132" height="72" rx="5" fill="#dceefa" stroke="#2776b5" stroke-width="4"/><path d="M28 60h132M28 82h132M72 38v72M118 38v72" stroke="#2776b5" stroke-width="3"/><text x="24" y="145" fill="#ef684d" font-size="17">1</text><text x="24" y="176" fill="#172b3e" font-size="25" font-weight="700">Customer</text><text x="24" y="202" fill="#5c7082" font-size="18">entity</text></g><path d="M500 245h70" stroke="#ffd43b" stroke-width="8"/><path d="M560 225l25 20-25 20" fill="none" stroke="#ffd43b" stroke-width="8"/><g transform="translate(585 140)"><rect width="430" height="210" rx="12" fill="#f5f7fa" stroke="#6cb7e9" stroke-width="6"/><rect x="28" y="38" width="132" height="72" rx="5" fill="#dceefa" stroke="#2776b5" stroke-width="4"/><path d="M28 60h132M28 82h132M72 38v72M118 38v72" stroke="#2776b5" stroke-width="3"/><path d="M190 74h70" stroke="#ef684d" stroke-width="6"/><circle cx="278" cy="74" r="12" fill="#ffd43b"/><text x="24" y="145" fill="#ef684d" font-size="17">2</text><text x="24" y="176" fill="#172b3e" font-size="25" font-weight="700">Order</text><text x="24" y="202" fill="#5c7082" font-size="18">linked record</text></g><path d="M1035 245h70" stroke="#ffd43b" stroke-width="8"/><path d="M1095 225l25 20-25 20" fill="none" stroke="#ffd43b" stroke-width="8"/><g transform="translate(1120 140)"><rect width="430" height="210" rx="12" fill="#f5f7fa" stroke="#6cb7e9" stroke-width="6"/><rect x="28" y="38" width="132" height="72" rx="5" fill="#dceefa" stroke="#2776b5" stroke-width="4"/><path d="M28 60h132M28 82h132M72 38v72M118 38v72" stroke="#2776b5" stroke-width="3"/><path d="M190 74h70" stroke="#ef684d" stroke-width="6"/><circle cx="278" cy="74" r="12" fill="#ffd43b"/><text x="24" y="145" fill="#ef684d" font-size="17">3</text><text x="24" y="176" fill="#172b3e" font-size="25" font-weight="700">Product</text><text x="24" y="202" fill="#5c7082" font-size="18">linked record</text></g></g><text x="52" y="450" fill="#d7e4ee" font-family="Arial" font-size="23">Keys connect entities so facts can be stored once and reused reliably.</text></svg>
